Coordinates
version=1
nRows=32
nColumns=12
inDegrees=yes

Units are S.I. units (second, meters, Newtons, ...)
Angles are in degrees

endheader
time	SC_y	SC_z	SC_x	AC_y	AC_z	AC_x	GH_y	GH_z	GH_yy	EL_x	PS_y
       0.0              -54.44          14.63          76.39          53.27         -18.59          12.46         -12.49          84.82         -101.4          123.9          72.44
   0.04527              -54.44          14.62          76.38          53.27         -18.59          12.46         -12.48          84.81         -101.4          123.8          72.44
   0.09054              -54.44          14.62          76.37          53.27         -18.59          12.46         -12.46           84.8         -101.4          123.8          72.43
    0.1358              -54.44          14.62          76.36          53.26         -18.58          12.46         -12.44          84.78         -101.4          123.8          72.42
    0.1811              -54.44          14.62          76.35          53.26         -18.58          12.45         -12.42          84.77         -101.4          123.8          72.42
    0.2263              -54.44          14.61          76.33          53.26         -18.57          12.45          -12.4          84.76         -101.4          123.8          72.41
    0.2716              -54.44          14.61          76.32          53.25         -18.57          12.45         -12.38          84.74         -101.4          123.8           72.4
    0.3169              -54.44          14.61           76.3          53.25         -18.56          12.45         -12.35          84.73         -101.4          123.8           72.4
    0.3621              -54.43           14.6          76.29          53.24         -18.56          12.45         -12.33          84.71         -101.4          123.8          72.39
    0.4074              -54.43           14.6          76.27          53.24         -18.55          12.44          -12.3          84.69         -101.4          123.8          72.38
    0.4527              -54.43           14.6          76.25          53.24         -18.55          12.44         -12.27          84.67         -101.4          123.8          72.37
     0.498              -54.43          14.59          76.23          53.23         -18.54          12.44         -12.23          84.65         -101.4          123.8          72.36
    0.5432              -54.43          14.59          76.21          53.23         -18.53          12.44          -12.2          84.63         -101.4          123.7          72.35
    0.5885              -54.42          14.58          76.19          53.22         -18.52          12.43         -12.16          84.61         -101.5          123.7          72.33
    0.6338              -54.42          14.58          76.16          53.21         -18.52          12.43         -12.12          84.58         -101.5          123.7          72.32
     0.679              -54.42          14.57          76.14          53.21         -18.51          12.43         -12.08          84.55         -101.5          123.7          72.31
    0.7243              -54.42          14.56          76.11           53.2          -18.5          12.42         -12.03          84.52         -101.5          123.7          72.29
    0.7696              -54.41          14.56          76.08          53.19         -18.49          12.42         -11.97          84.49         -101.5          123.7          72.27
    0.8148              -54.41          14.55          76.04          53.18         -18.47          12.41         -11.92          84.46         -101.5          123.6          72.25
    0.8601              -54.41          14.54           76.0          53.17         -18.46          12.41         -11.85          84.42         -101.5          123.6          72.23
    0.9054               -54.4          14.53          75.96          53.16         -18.45           12.4         -11.78          84.37         -101.5          123.6          72.21
    0.9506               -54.4          14.52          75.92          53.15         -18.43           12.4         -11.71          84.32         -101.6          123.6          72.19
    0.9959              -54.39          14.51          75.86          53.14         -18.41          12.39         -11.62          84.27         -101.6          123.5          72.16
     1.041              -54.39           14.5          75.81          53.12         -18.39          12.38         -11.53          84.21         -101.6          123.5          72.13
     1.086              -54.38          14.48          75.75          53.11         -18.37          12.37         -11.43          84.15         -101.6          123.5          72.09
     1.132              -54.37          14.47          75.68          53.09         -18.35          12.37         -11.31          84.08         -101.7          123.4          72.06
     1.177              -54.37          14.45           75.6          53.07         -18.32          12.36         -11.18          83.99         -101.7          123.4          72.01
     1.222              -54.36          14.43          75.51          53.05         -18.29          12.34         -11.04           83.9         -101.7          123.3          71.97
     1.268              -54.35          14.41          75.41          53.02         -18.25          12.33         -10.87           83.8         -101.8          123.2          71.91
     1.313              -54.34          14.39           75.3           53.0         -18.21          12.32         -10.68          83.68         -101.8          123.2          71.85
     1.358              -54.32          14.36          75.17          52.96         -18.17           12.3         -10.47          83.55         -101.8          123.1          71.78
     1.403              -54.31          14.33          75.02          52.93         -18.12          12.28         -10.23          83.39         -101.9          123.0           71.7
